<?xml version="1.0" encoding="UTF-8" standalone="no"?>
<svg
   xmlns:dc="http://purl.org/dc/elements/1.1/"
   xmlns:cc="http://creativecommons.org/ns#"
   xmlns:rdf="http://www.w3.org/1999/02/22-rdf-syntax-ns#"
   xmlns:svg="http://www.w3.org/2000/svg"
   xmlns="http://www.w3.org/2000/svg"
   xmlns:sodipodi="http://sodipodi.sourceforge.net/DTD/sodipodi-0.dtd"
   xmlns:inkscape="http://www.inkscape.org/namespaces/inkscape"
   width="16"
   height="16"
   class="octicon octicon-key"
   viewBox="0 0 0.875 1"
   version="1.1"
   aria-hidden="true"
   id="svg2"
   inkscape:version="0.91 r13725"
   sodipodi:docname="col_pk.svg">
  <metadata
     id="metadata10">
    <rdf:RDF>
      <cc:Work
         rdf:about="">
        <dc:format>image/svg+xml</dc:format>
        <dc:type
           rdf:resource="http://purl.org/dc/dcmitype/StillImage" />
        <dc:title></dc:title>
      </cc:Work>
    </rdf:RDF>
  </metadata>
  <defs
     id="defs8" />
  <sodipodi:namedview
     pagecolor="#ffffff"
     bordercolor="#666666"
     borderopacity="1"
     objecttolerance="10"
     gridtolerance="10"
     guidetolerance="10"
     inkscape:pageopacity="0"
     inkscape:pageshadow="2"
     inkscape:window-width="1366"
     inkscape:window-height="715"
     id="namedview6"
     showgrid="false"
     inkscape:zoom="14.75"
     inkscape:cx="10.20339"
     inkscape:cy="8.4856653"
     inkscape:window-x="0"
     inkscape:window-y="0"
     inkscape:window-maximized="1"
     inkscape:current-layer="svg2" />
  <path
     d="m 0.72379508,0.24375027 c -0.0368304,-0.0360581 -0.0829911,-0.0548073 -0.13897319,-0.0562504 -0.0554911,0.001445 -0.10214287,0.0201922 -0.13897322,0.0562504 -0.0368304,0.0360581 -0.0554911,0.0812502 -0.0569643,0.13605759 0,0.0144231 0.001473,0.0283653 0.004419,0.0427884 L 0.09375,0.7163462 l 0,0.0480769 0.04910715,0.0480769 0.0982143,0 0.0491071,-0.0480769 0,-0.0480769 0.0491072,0 0,-0.048077 0.0491071,0 0,-0.0480769 0.0982143,0 0.0535267,-0.0533654 c 0.0147321,0.003846 0.0289733,0.005288 0.0446875,0.005288 0.0559821,-0.001442 0.10214282,-0.0201923 0.13897318,-0.05625 C 0.760625,0.47980745 0.77977673,0.43461527 0.78125,0.37980756 0.77977692,0.32499992 0.760625,0.27980766 0.72379461,0.24374996 Z m -0.0898661,0.1543268 c -0.0378125,0 -0.0677679,-0.0293269 -0.0677679,-0.0663461 0,-0.0370192 0.0299554,-0.0663464 0.0677679,-0.0663464 0.0378125,0 0.0677677,0.0293273 0.0677677,0.0663464 0,0.0370192 -0.0299554,0.0663461 -0.0677677,0.0663461 z"
     id="path4"
     style="fill:#c5c5c5;fill-opacity:1;fill-rule:evenodd"
     inkscape:connector-curvature="0" />
</svg>
