<?xml version="1.0" encoding="UTF-8" standalone="no"?>
<!-- Created with Inkscape (http://www.inkscape.org/) -->

<svg
   xmlns:dc="http://purl.org/dc/elements/1.1/"
   xmlns:cc="http://creativecommons.org/ns#"
   xmlns:rdf="http://www.w3.org/1999/02/22-rdf-syntax-ns#"
   xmlns:svg="http://www.w3.org/2000/svg"
   xmlns="http://www.w3.org/2000/svg"
   xmlns:sodipodi="http://sodipodi.sourceforge.net/DTD/sodipodi-0.dtd"
   xmlns:inkscape="http://www.inkscape.org/namespaces/inkscape"
   version="1.1"
   id="svg6337"
   width="16"
   height="16"
   viewBox="0 0 16.000001 16"
   sodipodi:docname="table_view.svg"
   inkscape:version="0.92.3 (2405546, 2018-03-11)">
  <metadata
     id="metadata6343">
    <rdf:RDF>
      <cc:Work
         rdf:about="">
        <dc:format>image/svg+xml</dc:format>
        <dc:type
           rdf:resource="http://purl.org/dc/dcmitype/StillImage" />
        <dc:title></dc:title>
      </cc:Work>
    </rdf:RDF>
  </metadata>
  <defs
     id="defs6341" />
  <sodipodi:namedview
     pagecolor="#ffffff"
     bordercolor="#666666"
     borderopacity="1"
     objecttolerance="10"
     gridtolerance="10"
     guidetolerance="10"
     inkscape:pageopacity="0"
     inkscape:pageshadow="2"
     inkscape:window-width="1920"
     inkscape:window-height="1017"
     id="namedview6339"
     showgrid="false"
     inkscape:zoom="15.070172"
     inkscape:cx="6.9978018"
     inkscape:cy="7.8300366"
     inkscape:window-x="-8"
     inkscape:window-y="-8"
     inkscape:window-maximized="1"
     inkscape:current-layer="svg6337" />
  <path
     style="fill:#c3c3c3;fill-opacity:1;stroke-width:0.02290221"
     d="m 13.006548,14.980629 c -0.03233,-0.0094 -0.09476,-0.0348 -0.138727,-0.05649 -0.04397,-0.02169 -0.674687,-0.607733 -1.401587,-1.302323 l -1.321638,-1.262888 -0.1590513,0.09994 C 9.4635197,12.786883 8.8152932,12.996966 8.1407035,13.056757 7.3006095,13.131217 6.3523076,12.89844 5.6314908,12.440827 4.5330022,11.743446 3.8140704,10.475976 3.8140704,9.2367327 c 0,-0.221056 0.058394,-0.678402 0.1164009,-0.911655 0.3011534,-1.21098 1.2849918,-2.257015 2.5450617,-2.7059533 0.9935947,-0.3539986 2.1518441,-0.2889476 3.1291296,0.1757417 0.4335834,0.2061646 0.8683114,0.5162546 1.1790854,0.8410376 1.201429,1.255587 1.389239,3.251365 0.435736,4.6303903 -0.06379,0.09227 -0.117792,0.174518 -0.119997,0.182789 -0.0022,0.0083 0.550627,0.546748 1.228515,1.196616 1.170074,1.121708 1.421344,1.379919 1.475827,1.516596 0.013,0.03262 0.02364,0.117437 0.02364,0.188481 0,0.387625 -0.454331,0.736209 -0.820923,0.629852 z M 8.1525726,12.217571 c 0.6650663,-0.07459 1.1255946,-0.257283 1.6306632,-0.646908 0.5665372,-0.437045 0.9674502,-1.066672 1.1266472,-1.7693833 0.04847,-0.213941 0.05662,-0.808734 0.01444,-1.052946 C 10.802911,8.0454437 10.394014,7.3725507 9.8067908,6.9092907 9.021308,6.2896247 8.0467504,6.0766867 7.071391,6.3116157 6.6800758,6.4058697 6.4656544,6.4939477 6.1474037,6.6911617 5.079191,7.3531137 4.5070516,8.6182957 4.748405,9.7847907 c 0.1332617,0.6440743 0.4158636,1.1394433 0.9079103,1.5914633 0.5338229,0.490398 1.1912518,0.787196 1.8863983,0.851618 0.2716788,0.02518 0.2973656,0.02474 0.609859,-0.0103 z M 1,6.7594147 V 1.0000011 h 7 7 v 5.7594136 5.7594133 l -0.322446,-1.12e-4 -0.322445,-1.12e-4 -0.309049,-0.240337 -0.309049,-0.240322 0.379401,-0.01119 0.3794,-0.01119 0.0059,-3.8324593 0.0059,-3.832458 -6.490017,0.016144 c -3.5695092,0.00888 -6.4913616,0.017404 -6.4930053,0.018945 -0.00164,0.00154 -0.00794,1.726431 -0.014001,3.83309 l -0.011012,3.8302903 h 0.7686316 0.7686316 l 0.2143558,0.23485 0.2143559,0.23485 H 2.2328061 1 Z"
     id="path6892"
     inkscape:connector-curvature="0" />
</svg>
