<?xml version="1.0" encoding="UTF-8" standalone="no"?>
<svg
   xmlns:dc="http://purl.org/dc/elements/1.1/"
   xmlns:cc="http://creativecommons.org/ns#"
   xmlns:rdf="http://www.w3.org/1999/02/22-rdf-syntax-ns#"
   xmlns:svg="http://www.w3.org/2000/svg"
   xmlns="http://www.w3.org/2000/svg"
   viewBox="0 0 16.000001 16"
   height="16"
   width="16"
   id="svg6337"
   version="1.1">
  <metadata
     id="metadata6343">
    <rdf:RDF>
      <cc:Work
         rdf:about="">
        <dc:format>image/svg+xml</dc:format>
        <dc:type
           rdf:resource="http://purl.org/dc/dcmitype/StillImage" />
        <dc:title></dc:title>
      </cc:Work>
    </rdf:RDF>
  </metadata>
  <defs
     id="defs6341" />
  <path
     id="path6892-1"
     d="m 11.854407,13.782417 c -0.03749,-0.01146 -0.109893,-0.04206 -0.160888,-0.06829 -0.05098,-0.02624 -0.782459,-0.734594 -1.625473,-1.574169 L 8.5352919,10.613463 8.350834,10.73426 C 7.7454219,11.130753 6.9936489,11.384688 6.2113014,11.456959 5.2370124,11.546965 4.1372306,11.265599 3.3012718,10.712464 2.0273128,9.8695157 1.1935402,8.3374771 1.1935402,6.8395585 c 0,-0.267199 0.06772,-0.8200098 0.1349943,-1.1019513 C 1.6777937,4.2738516 2.8187888,3.0094714 4.2801399,2.4668232 5.4324495,2.0389324 6.775715,2.1175619 7.9091102,2.6792487 8.4119536,2.9284473 8.9161248,3.3032644 9.2765416,3.6958417 10.669884,5.2135149 10.887695,7.6258835 9.781881,9.2927641 9.7078981,9.4042868 9.6452725,9.5037117 9.6427151,9.5137087 c -0.00257,0.010161 0.6385829,0.6608733 1.4247559,1.4463943 1.356979,1.355848 1.648387,1.667957 1.711573,1.833165 0.01508,0.03943 0.02741,0.14194 0.02741,0.227823 0,0.468538 -0.526904,0.889881 -0.952055,0.761324 z M 6.2250666,10.442607 C 6.9963688,10.352438 7.530461,10.13162 8.1162083,9.660664 8.7732435,9.1323941 9.2381982,8.3713404 9.4228245,7.5219472 9.4790393,7.263347 9.4884874,6.5444002 9.4395719,6.2492124 9.2987655,5.3996036 8.8245519,4.5862528 8.1435261,4.0262944 7.2325714,3.2772817 6.1023405,3.0198957 4.971179,3.3038629 4.5173558,3.4177911 4.2686831,3.5242541 3.899596,3.762634 2.6607488,4.5627589 1.9972167,6.0920307 2.2771235,7.5020151 c 0.1545488,0.7785185 0.4822929,1.3772895 1.0529381,1.9236637 0.619095,0.5927622 1.3815401,0.9515112 2.1877282,1.0293822 0.3150763,0.03044 0.3448663,0.02992 0.7072768,-0.01242 z"
     style="fill:#c5c5c5;fill-opacity:1;stroke:#c5c5c5;stroke-width:0.38708037;stroke-miterlimit:4;stroke-dasharray:none;stroke-opacity:1" />
</svg>
