<svg class="octicon octicon-file-code" width="16" height="16" aria-hidden="true" viewBox="0 0 4 4" xmlns="http://www.w3.org/2000/svg"><path d="m1.6 1.7-0.6 0.7 0.6 0.7-0.2 0.5-1.1-1.1 1.1-1.1zm0.9-0.4 1.1 1.1-1.1 1.1-0.2-0.4 0.6-0.7-0.6-0.7z" fill="#c5c5c5"/><style> .icon-canvas-transparent{opacity:0;fill:#2d2d30}.icon-vs-out{fill:#2d2d30}.icon-vs-bg{fill:#c5c5c5}.icon-vs-fg{fill:#2b282e}.icon-vs-action-blue{fill:#75beff}</style><path class="icon-vs-action-blue" d="m2 1-0.8 0.7h-0.5l0.5-0.5h-1v-0.5h1l-0.5-0.5h0.5l0.8 0.7z" style="fill:#75beff;stroke-width:0.5;stroke:#fff"/><style> .icon-canvas-transparent{opacity:0;fill:#2d2d30}.icon-vs-out{fill:#2d2d30}.icon-vs-bg{fill:#c5c5c5}.icon-vs-action-blue{fill:#75beff}</style><style> .icon-canvas-transparent{opacity:0;fill:#2d2d30}.icon-vs-out{fill:#2d2d30}.icon-vs-bg{fill:#c5c5c5}.icon-vs-fg{fill:#2b282e}.icon-vs-action-blue{fill:#75beff}</style><g transform="matrix(0.25 0 0 0.25 -8.2373 -3.7458)"><path class="icon-canvas-transparent" d="m16 16h-16v-16h16v16z" opacity="0"/><path class="icon-vs-out" d="m14 4.6v8.4c0 0.8-0.6 2-2 2h-8c-1 0-2-0.7-2-2v-5h-1.4l2-2h-2.6v-4h2.6l-2-2h4.8l1 1h3.6l4 3.6z" fill="#2d2d30"/><path class="icon-vs-fg" d="m9 3.6-0.6-0.6h0.6v0.6zm3 2.4h-2v7h2v-7zm-6 7v-5.6l-0.6 0.6h-1.4v5h2zm1 0h2v-8.6l-1 1v0.6h-0.6l-0.4 0.4v6.6z" fill="#2b282e"/><path class="icon-vs-bg" d="m8 5.4v0.6h-0.6l0.6-0.6zm5-0.4v8s0 1-1 1h-8s-1 0-1-1v-5h1v5h2v-5.6l1-1v6.6h2v-8.6l0.4-0.4-0.4-0.4v-0.6h-0.6l-1-1h2.2l3.4 3zm-1 1h-2v7h2v-7z" fill="#c5c5c5"/><path class="icon-vs-action-blue" d="m8 4-3 3h-2l2-2h-4v-2h4l-2-2h2l3 3z" fill="#75beff"/></g><path d="m1 2h0.5l0.5-0.5-0.3-0.1z" fill="none"/><path class="icon-vs-action-blue" d="m2 1-0.7 0.8h-0.5l0.5-0.5h-1v-0.5h1l-0.5-0.5h0.5l0.8 0.8z" fill="#75beff"/><style> .icon-canvas-transparent{opacity:0;fill:#2d2d30}.icon-vs-out{fill:#2d2d30}.icon-vs-bg{fill:#c5c5c5}.icon-vs-fg{fill:#2b282e}.icon-vs-action-blue{fill:#75beff}</style></svg>
