<svg xmlns="http://www.w3.org/2000/svg" height="16" class="octicon octicon-file-code" viewBox="0 0 4 4" width="16" aria-hidden="true"><path d="M1.6 1.7 1 2.4 1.6 3.1 1.4 3.5 0.4 2.4 1.4 1.3ZM2.6 1.3 3.6 2.4 2.6 3.5 2.4 3.1 3 2.4 2.4 1.7Z" fill="#424242"/><style>  .icon-canvas-transparent{opacity:0;fill:#2d2d30}.icon-vs-out{fill:#2d2d30}.icon-vs-bg{fill:#c5c5c5}.icon-vs-fg{fill:#2b282e}.icon-vs-action-blue{fill:#75beff}</style><style>  .icon-canvas-transparent{opacity:0;fill:#2d2d30}.icon-vs-out{fill:#2d2d30}.icon-vs-bg{fill:#c5c5c5}.icon-vs-action-blue{fill:#75beff}</style><style>  .icon-canvas-transparent{opacity:0;fill:#2d2d30}.icon-vs-out{fill:#2d2d30}.icon-vs-bg{fill:#c5c5c5}.icon-vs-fg{fill:#2b282e}.icon-vs-action-blue{fill:#75beff}</style><g transform="matrix(0.25 0 0 0.25 -8.2372881 -3.7457627)"><path d="M16 16 0 16 0 0 16 0 16 16Z" class="icon-canvas-transparent" style="fill:#2d2d30;opacity:0"/><path d="M14 4.6 14 13c0 0.8-0.6 2-2 2l-8 0C3 15 2 14.3 2 13L2 8 0.6 8 2.6 6 0 6 0 2l2.6 0-2-2 4.8 0 1 1 3.6 0L14 4.6Z" class="icon-vs-out" fill="#2d2d30"/><path d="M9 3.6 8.4 3 9 3 9 3.6ZM12 6l-2 0 0 7 2 0 0-7zM6 13 6 7.4 5.4 8 4 8l0 5 2 0zm1 0 2 0 0-8.6-1 1L8 6 7.4 6 7 6.4 7 13Z" class="icon-vs-fg" fill="#2b282e"/><path d="M8 5.4 8 6 7.4 6 8 5.4ZM13 5l0 8c0 0 0 1-1 1l-8 0C4 14 3 14 3 13l0-5 1 0 0 5 2 0 0-5.6 1-1L7 13 9 13 9 4.4 9.4 4 9 3.6 9 3 8.4 3 7.4 2 9.6 2 13 5Zm-1 1-2 0 0 7 2 0 0-7z" class="icon-vs-bg" fill="#c5c5c5"/><path d="M8 4 5 7 3 7 5 5 1 5 1 3 5 3 3 1 5 1 8 4Z" class="icon-vs-action-blue" fill="#75beff"/></g><path d="M1 2C1.5 2 1.5 2 1.5 2L1.9 1.5 1.6 1.4Z" style="fill:none;stroke-width:0.3px"/><path d="M2 1 1.3 1.8 0.7 1.8 1.3 1.3l-1 0 0-0.5 1 0-0.5-0.5 0.5 0L2 1Z" class="icon-vs-action-blue" fill="#00539c"/><style>  .icon-canvas-transparent{opacity:0;fill:#2d2d30}.icon-vs-out{fill:#2d2d30}.icon-vs-bg{fill:#c5c5c5}.icon-vs-fg{fill:#2b282e}.icon-vs-action-blue{fill:#75beff}</style><style>  .icon-canvas-transparent{opacity:0;fill:#f6f6f6}.icon-vs-out{fill:#f6f6f6}.icon-vs-bg{fill:#424242}.icon-vs-fg{fill:#f0eff1}.icon-vs-action-blue{fill:#00539c}</style></svg>
